# xmcd
#
# Track frame offsets: 
#        150
#        17907
#        32127
#        48405
#        68436
#        86095
#        103773
#        119958
#        139764
#        157640
#        175454
#
# Disc length: 3189 seconds
#
# Revision: 11
# Processed by: cddbd v1.5PL3 Copyright (c) Steve Scherf et al.
# Submitted via: ExactAudioCopy v0.95a5
#
DISCID=930c730b
DTITLE=Robbie Williams - Life Thru A Lens
DYEAR=1997
DGENRE=Pop
TTITLE0=Lazy Days
TTITLE1=Life Thru A Lens
TTITLE2=Ego A Go Go
TTITLE3=Angels
TTITLE4=South Of The Border
TTITLE5=Old Before I Die
TTITLE6=One Of God's Better People
TTITLE7=Let Me Entertain You
TTITLE8=Killing Me
TTITLE9=Clean
TTITLE10=Baby Girl Window
EXTD=YEAR: 1997 ID3G: 13
EXTT0=
EXTT1=
EXTT2=
EXTT3=
EXTT4=
EXTT5=
EXTT6=
EXTT7=
EXTT8=
EXTT9=
EXTT10=
PLAYORDER=
